<svg width="20" height="18" viewBox="0 0 20 18" fill="none" xmlns="http://www.w3.org/2000/svg">
<path d="M0 5V2C0 1.45 0.196 0.979333 0.588 0.588C0.98 0.196666 1.45067 0.000666667 2 0H18C18.55 0 19.021 0.196 19.413 0.588C19.805 0.98 20.0007 1.45067 20 2V7.5H18V2H2V5H0ZM5 13C4.81667 13 4.64167 12.9543 4.475 12.863C4.30833 12.7717 4.18333 12.634 4.1 12.45L2.375 9H0V7H3C3.18333 7 3.35833 7.046 3.525 7.138C3.69167 7.23 3.81667 7.36733 3.9 7.55L5 9.75L8.1 3.55C8.18333 3.38333 8.30833 3.25833 8.475 3.175C8.64167 3.09167 8.81667 3.05 9 3.05C9.18333 3.05 9.35833 3.09167 9.525 3.175C9.69167 3.25833 9.81667 3.38333 9.9 3.55L11.575 6.9C11.275 7.08333 10.9877 7.275 10.713 7.475C10.4383 7.675 10.184 7.9 9.95 8.15L9 6.25L5.9 12.45C5.81667 12.6333 5.69167 12.771 5.525 12.863C5.35833 12.955 5.18333 13.0007 5 13ZM8.675 16H2C1.45 16 0.979333 15.8043 0.588 15.413C0.196667 15.0217 0.000666667 14.5507 0 14V11H2V14H8.075C8.125 14.35 8.2 14.6917 8.3 15.025C8.4 15.3583 8.525 15.6833 8.675 16ZM15 18C13.6167 18 12.4377 17.5123 11.463 16.537C10.4883 15.5617 10.0007 14.3827 10 13C10 11.6167 10.4877 10.4377 11.463 9.463C12.4383 8.48833 13.6173 8.00067 15 8C16.3833 8 17.5627 8.48767 18.538 9.463C19.5133 10.4383 20.0007 11.6173 20 13C20 14.3833 19.5123 15.5627 18.537 16.538C17.5617 17.5133 16.3827 18.0007 15 18ZM15.2 13.5L17.475 11.225L16.775 10.525L14.5 12.8L15.2 13.5Z" fill="#F24E1E"/>
</svg>
