<svg width="20" height="20" viewBox="0 0 20 20" fill="none" xmlns="http://www.w3.org/2000/svg">
<path d="M10 18C9.71667 18 9.47933 17.904 9.288 17.712C9.09667 17.52 9.00067 17.2827 9 17V13C9 12.7167 9.096 12.4793 9.288 12.288C9.48 12.0967 9.71733 12.0007 10 12H12.5C12.7833 12 13.021 12.096 13.213 12.288C13.405 12.48 13.5007 12.7173 13.5 13V17C13.5 17.2833 13.404 17.521 13.212 17.713C13.02 17.905 12.7827 18.0007 12.5 18H10ZM10.5 16.5H12V13.5H10.5V16.5ZM15 20V17.25C15 16.9667 15.096 16.7293 15.288 16.538C15.48 16.3467 15.7173 16.2507 16 16.25H18V15.5H15V14H18.5C18.7833 14 19.021 14.096 19.213 14.288C19.405 14.48 19.5007 14.7173 19.5 15V16.75C19.5 17.0333 19.404 17.271 19.212 17.463C19.02 17.655 18.7827 17.7507 18.5 17.75H16.5V18.5H19.5V20H15ZM7 19.95C4.95 19.7167 3.27067 18.8377 1.962 17.313C0.653334 15.7883 -0.000666157 13.9507 5.09165e-07 11.8C5.09165e-07 10.1333 0.662667 8.321 1.988 6.363C3.31333 4.405 5.31733 2.284 8 0C10.2 1.86667 11.946 3.63333 13.238 5.3C14.53 6.96667 15.3673 8.53333 15.75 10H13.675C13.3083 8.95 12.65 7.80833 11.7 6.575C10.75 5.34167 9.51667 4.03333 8 2.65C6.01667 4.46667 4.521 6.14167 3.513 7.675C2.505 9.20833 2.00067 10.5833 2 11.8C2 13.4 2.46267 14.7627 3.388 15.888C4.31333 17.0133 5.51733 17.6923 7 17.925V19.95Z" fill="#F24E1E"/>
</svg>
